<svg width="1400" height="840" viewBox="0 0 1400 840" fill="none" xmlns="http://www.w3.org/2000/svg">
  <defs>
    <linearGradient id="bg" x1="700" y1="0" x2="700" y2="840" gradientUnits="userSpaceOnUse">
      <stop stop-color="#F8F1E8"/>
      <stop offset="1" stop-color="#EEDFCB"/>
    </linearGradient>
    <linearGradient id="sheet" x1="650" y1="400" x2="900" y2="710" gradientUnits="userSpaceOnUse">
      <stop stop-color="#F5DDBF"/>
      <stop offset="1" stop-color="#E6BE93"/>
    </linearGradient>
    <filter id="soft" x="-20%" y="-20%" width="140%" height="140%">
      <feGaussianBlur stdDeviation="8"/>
    </filter>
  </defs>

  <rect width="1400" height="840" fill="url(#bg)"/>
  <rect x="940" y="80" width="260" height="430" rx="18" fill="#FAF7F2" opacity="0.8"/>
  <rect x="964" y="108" width="212" height="372" rx="10" fill="#FFFDF9"/>

  <ellipse cx="1120" cy="170" rx="220" ry="160" fill="#FFD8A6" opacity="0.28" filter="url(#soft)">
    <animate attributeName="opacity" values="0.2;0.34;0.2" dur="7s" repeatCount="indefinite"/>
  </ellipse>

  <rect x="170" y="540" width="1060" height="170" rx="26" fill="#D8C1A7"/>
  <rect x="250" y="420" width="900" height="160" rx="80" fill="#E8D6C1"/>

  <path d="M290 495C390 442 542 420 700 430C860 440 1000 470 1110 540V680H290V495Z" fill="url(#sheet)">
    <animate attributeName="d" dur="6s" repeatCount="indefinite"
      values="M290 495C390 442 542 420 700 430C860 440 1000 470 1110 540V680H290V495Z;
              M290 503C392 450 544 427 700 438C858 448 998 478 1110 548V680H290V503Z;
              M290 495C390 442 542 420 700 430C860 440 1000 470 1110 540V680H290V495Z"/>
  </path>

  <ellipse cx="710" cy="458" rx="92" ry="72" fill="#F2C49A"/>
  <ellipse cx="665" cy="452" rx="9" ry="7" fill="#7A4A32"/>
  <ellipse cx="746" cy="452" rx="9" ry="7" fill="#7A4A32"/>
  <path d="M676 491C696 505 724 505 744 491" stroke="#9D5D3E" stroke-width="5" stroke-linecap="round"/>
  <path d="M625 440C640 396 674 370 712 370C753 370 786 398 800 444" stroke="#C98659" stroke-width="18" stroke-linecap="round"/>

  <circle cx="275" cy="160" r="2.8" fill="#FFFFFF" opacity="0.7">
    <animate attributeName="cy" values="160;130;160" dur="5.8s" repeatCount="indefinite"/>
  </circle>
  <circle cx="330" cy="200" r="3.2" fill="#FFFFFF" opacity="0.65">
    <animate attributeName="cy" values="200;168;200" dur="6.4s" repeatCount="indefinite"/>
  </circle>
  <circle cx="1160" cy="560" r="2.6" fill="#FFFFFF" opacity="0.55">
    <animate attributeName="cy" values="560;526;560" dur="7.1s" repeatCount="indefinite"/>
  </circle>
</svg>
