<svg width="1200" height="760" viewBox="0 0 1200 760" fill="none" xmlns="http://www.w3.org/2000/svg">
  <defs>
    <linearGradient id="bg" x1="600" y1="0" x2="600" y2="760" gradientUnits="userSpaceOnUse">
      <stop stop-color="#F6EFE8"/>
      <stop offset="1" stop-color="#E8D7C3"/>
    </linearGradient>
    <linearGradient id="shirt" x1="600" y1="285" x2="600" y2="480" gradientUnits="userSpaceOnUse">
      <stop stop-color="#B96B4C"/>
      <stop offset="1" stop-color="#8A4A33"/>
    </linearGradient>
  </defs>

  <rect width="1200" height="760" fill="url(#bg)"/>
  <rect x="120" y="470" width="960" height="180" rx="18" fill="#D8C1A7"/>
  <rect x="150" y="520" width="900" height="80" rx="14" fill="#C9AE91"/>
  <rect x="170" y="220" width="300" height="220" rx="16" fill="#FFF9F1"/>
  <ellipse cx="325" cy="264" rx="160" ry="94" fill="#FFD8A8" opacity="0.22"/>

  <ellipse cx="600" cy="308" rx="86" ry="72" fill="#EAB286"/>
  <path d="M545 292C558 250 584 226 615 226C650 226 678 253 691 295" stroke="#B8734E" stroke-width="15" stroke-linecap="round"/>
  <rect x="508" y="350" width="184" height="128" rx="44" fill="url(#shirt)"/>
  <path d="M520 407C546 397 568 399 585 416" stroke="#6F3828" stroke-width="6" stroke-linecap="round"/>

  <rect x="505" y="430" width="190" height="44" rx="20" fill="#A36045"/>
  <rect x="730" y="402" width="78" height="56" rx="14" fill="#FBF5EC"/>
  <path d="M808 418C826 420 834 430 834 443C834 456 826 466 808 468" stroke="#FBF5EC" stroke-width="12" stroke-linecap="round"/>
  <rect x="738" y="410" width="62" height="40" rx="10" fill="#E8D1B8"/>

  <path d="M756 400C754 381 763 366 770 350" stroke="#D7B08A" stroke-width="4" stroke-linecap="round" opacity="0.7">
    <animate attributeName="d" dur="2.3s" repeatCount="indefinite"
      values="M756 400C754 381 763 366 770 350;
              M758 400C764 381 775 367 781 350;
              M756 400C754 381 763 366 770 350"/>
    <animate attributeName="opacity" values="0.45;0.85;0.45" dur="2.3s" repeatCount="indefinite"/>
  </path>
  <path d="M780 400C779 383 789 369 796 352" stroke="#D7B08A" stroke-width="4" stroke-linecap="round" opacity="0.65">
    <animate attributeName="d" dur="2.7s" repeatCount="indefinite"
      values="M780 400C779 383 789 369 796 352;
              M783 400C790 383 801 370 808 352;
              M780 400C779 383 789 369 796 352"/>
    <animate attributeName="opacity" values="0.4;0.78;0.4" dur="2.7s" repeatCount="indefinite"/>
  </path>

  <circle cx="1010" cy="164" r="3" fill="#FFFFFF" opacity="0.65">
    <animate attributeName="cy" values="164;140;164" dur="5.6s" repeatCount="indefinite"/>
  </circle>
  <circle cx="1060" cy="206" r="2.7" fill="#FFFFFF" opacity="0.6">
    <animate attributeName="cy" values="206;178;206" dur="6.1s" repeatCount="indefinite"/>
  </circle>
</svg>
